<?xml version="1.0" encoding="UTF-8" standalone="no"?>
<svg
   xmlns:dc="http://purl.org/dc/elements/1.1/"
   xmlns:cc="http://creativecommons.org/ns#"
   xmlns:rdf="http://www.w3.org/1999/02/22-rdf-syntax-ns#"
   xmlns:svg="http://www.w3.org/2000/svg"
   xmlns="http://www.w3.org/2000/svg"
   xmlns:sodipodi="http://sodipodi.sourceforge.net/DTD/sodipodi-0.dtd"
   xmlns:inkscape="http://www.inkscape.org/namespaces/inkscape"
   width="800"
   height="800"
   viewBox="0 0 800 800"
   id="svg2"
   version="1.1"
   inkscape:version="1.0.1 (c497b03c, 2020-09-10)"
   sodipodi:docname="in_case_of_fire_square.svg"
   inkscape:export-filename="in_case_of_fire_ink.png"
   inkscape:export-xdpi="300"
   inkscape:export-ydpi="300">
  <defs
     id="defs4" />
  <sodipodi:namedview
     id="base"
     pagecolor="#ffffff"
     bordercolor="#666666"
     borderopacity="1.0"
     inkscape:pageopacity="0.0"
     inkscape:pageshadow="2"
     inkscape:zoom="0.57496698"
     inkscape:cx="410.307"
     inkscape:cy="314.27965"
     inkscape:document-units="px"
     inkscape:current-layer="layer5"
     showgrid="false"
     units="px"
     inkscape:window-width="1251"
     inkscape:window-height="943"
     inkscape:window-x="0"
     inkscape:window-y="23"
     inkscape:window-maximized="0"
     inkscape:document-rotation="0" />
  <metadata
     id="metadata7">
    <rdf:RDF>
      <cc:Work
         rdf:about="">
        <dc:format>image/svg+xml</dc:format>
        <dc:type
           rdf:resource="http://purl.org/dc/dcmitype/StillImage" />
        <dc:title></dc:title>
      </cc:Work>
    </rdf:RDF>
  </metadata>
  <g
     inkscape:groupmode="layer"
     id="layer5"
     inkscape:label="square"
     style="display:none">
    <rect
       style="fill:none;fill-rule:evenodd;stroke:#000000;stroke-width:1.01043;stroke-opacity:1"
       id="rect137"
       width="799.99982"
       height="800"
       x="1.4711605"
       y="0.60619551" />
  </g>
  <g
     inkscape:label="fire"
     inkscape:groupmode="layer"
     id="layer1"
     transform="translate(0,-287.3622)"
     style="display:inline">
    <rect
       style="fill:#e9362f;fill-opacity:1;stroke:none;stroke-width:0.931429"
       id="rect3413"
       width="799.99982"
       height="300"
       x="0"
       y="287.36221" />
  </g>
  <g
     inkscape:groupmode="layer"
     id="layer2"
     inkscape:label="flames"
     style="display:inline">
    <g
       id="g3445"
       style="fill:#ffffff;stroke:none"
       transform="translate(-144.3504,23.159566)">
      <path
         sodipodi:nodetypes="cccc"
         inkscape:connector-curvature="0"
         id="path3415"
         d="m 923.27943,57.388142 c 0,0 -22.07793,-7.9661 -36.36549,-54.5482379 C 865.95687,62.067701 923.7845,96.784091 923.7845,96.784091 Z"
         style="fill:#ffffff;fill-rule:evenodd;stroke:none;stroke-width:1px;stroke-linecap:butt;stroke-linejoin:miter;stroke-opacity:1" />
      <path
         sodipodi:nodetypes="ccc"
         inkscape:connector-curvature="0"
         id="path3417"
         d="M 922.26928,114.46176 C 871.76165,78.601345 880.85302,16.476963 831.35555,20.012497 c 27.27411,19.697975 15.65736,104.550793 90.91373,94.449263 z"
         style="fill:#ffffff;fill-rule:evenodd;stroke:none;stroke-width:1px;stroke-linecap:butt;stroke-linejoin:miter;stroke-opacity:1" />
      <path
         sodipodi:nodetypes="cccc"
         inkscape:connector-curvature="0"
         id="path3419"
         d="m 922.77435,135.67496 c 0,0 -43.32487,-3.29305 -83.84266,-56.568539 -3.02367,57.585489 52.27915,90.949719 84.34774,95.459419 z"
         style="fill:#ffffff;fill-rule:evenodd;stroke:none;stroke-width:1px;stroke-linecap:butt;stroke-linejoin:miter;stroke-opacity:1" />
      <path
         sodipodi:nodetypes="ccc"
         inkscape:connector-curvature="0"
         id="path3421"
         d="m 922.26927,193.25366 c -59.09392,-14.14214 -57.07361,-70.71068 -110.10662,-39.90103 39.39595,7.57615 47.98224,76.26652 110.10662,39.90103 z"
         style="fill:#ffffff;fill-rule:evenodd;stroke:none;stroke-width:1px;stroke-linecap:butt;stroke-linejoin:miter;stroke-opacity:1" />
      <path
         sodipodi:nodetypes="cccc"
         inkscape:connector-curvature="0"
         id="path3423"
         d="m 922.26927,211.94148 c 0,0 -39.39594,15.65737 -83.33758,-17.17259 3.53553,28.78935 22.72843,60.50584 83.33758,55.55839 z"
         style="fill:#ffffff;fill-rule:evenodd;stroke:none;stroke-width:1px;stroke-linecap:butt;stroke-linejoin:miter;stroke-opacity:1" />
    </g>
  </g>
  <g
     inkscape:groupmode="layer"
     id="layer3"
     inkscape:label="text"
     style="display:inline">
    <text
       xml:space="preserve"
       style="font-style:normal;font-weight:normal;font-size:14.2353px;line-height:0%;font-family:sans-serif;letter-spacing:0px;word-spacing:0px;fill:#000000;fill-opacity:1;stroke:none;stroke-width:1.18628px;stroke-linecap:butt;stroke-linejoin:miter;stroke-opacity:1"
       x="336.83194"
       y="122.68181"
       id="text3459"><tspan
         sodipodi:role="line"
         x="336.83194"
         y="122.68181"
         style="font-style:normal;font-variant:normal;font-weight:bold;font-stretch:normal;font-size:102.094px;line-height:1.25;font-family:Menlo;-inkscape-font-specification:'Menlo Bold';text-align:center;text-anchor:middle;fill:#ffffff;stroke-width:1.18628px"
         id="tspan161">In case</tspan><tspan
         sodipodi:role="line"
         x="336.83194"
         y="250.29929"
         style="font-style:normal;font-variant:normal;font-weight:bold;font-stretch:normal;font-size:102.094px;line-height:1.25;font-family:Menlo;-inkscape-font-specification:'Menlo Bold';text-align:center;text-anchor:middle;fill:#ffffff;stroke-width:1.18628px"
         id="tspan167">of fire</tspan></text>
    <text
       xml:space="preserve"
       style="font-style:normal;font-weight:normal;line-height:0%;font-family:sans-serif;letter-spacing:0px;word-spacing:0px;fill:#000000;fill-opacity:1;stroke:none;stroke-width:1px;stroke-linecap:butt;stroke-linejoin:miter;stroke-opacity:1"
       x="201.81081"
       y="431.19351"
       id="text3741"><tspan
         sodipodi:role="line"
         id="tspan3743"
         x="201.81081"
         y="431.19351"
         style="font-style:normal;font-variant:normal;font-weight:bold;font-stretch:normal;font-size:72.7838px;line-height:200%;font-family:Menlo;-inkscape-font-specification:'Menlo Bold'">1. git commit</tspan><tspan
         sodipodi:role="line"
         x="201.81081"
         y="576.76111"
         id="tspan3745"
         style="font-style:normal;font-variant:normal;font-weight:bold;font-stretch:normal;font-size:72.7838px;line-height:200%;font-family:Menlo;-inkscape-font-specification:'Menlo Bold'">2. git push</tspan><tspan
         sodipodi:role="line"
         x="201.81081"
         y="722.32867"
         id="tspan3747"
         style="font-style:normal;font-variant:normal;font-weight:bold;font-stretch:normal;font-size:72.7838px;line-height:200%;font-family:Menlo;-inkscape-font-specification:'Menlo Bold'">3. git out</tspan></text>
    <text
       xml:space="preserve"
       style="font-style:normal;font-weight:normal;line-height:0%;font-family:sans-serif;letter-spacing:0px;word-spacing:0px;fill:#000000;fill-opacity:1;stroke:none;stroke-width:1px;stroke-linecap:butt;stroke-linejoin:miter;stroke-opacity:1"
       x="687.36377"
       y="571.99969"
       id="text3749"><tspan
         sodipodi:role="line"
         id="tspan3751"
         x="687.36377"
         y="571.99969"
         style="font-size:40px;line-height:1.25"> </tspan></text>
  </g>
  <g
     inkscape:groupmode="layer"
     id="layer4"
     inkscape:label="icons"
     style="display:inline">
    <path
       id="path3513"
       d="m 124.25517,394.88354 c -3.00976,-11.4164 -13.28453,-19.92681 -25.635011,-19.92681 -12.350488,0 -22.625246,8.51041 -25.635025,19.92681 H 52.124228 v 13.28456 h 20.860906 c 3.009779,11.41642 13.284537,19.92684 25.635025,19.92684 12.350481,0 22.625251,-8.51042 25.635011,-19.92684 h 20.8609 v -13.28456 z m -25.635011,21.27605 c -8.095278,0 -14.633767,-6.53849 -14.633767,-14.63376 0,-8.09528 6.538489,-14.63377 14.633767,-14.63377 8.095271,0 14.633761,6.53849 14.633761,14.63377 0,8.09527 -6.53849,14.63376 -14.633761,14.63376 z"
       inkscape:connector-curvature="0" />
    <path
       id="path3574"
       d="m 83.121522,499.89758 h -7.749328 v -7.74933 h 7.749328 z m -7.749328,15.49864 h 7.749328 v -7.74932 h -7.749328 z m 30.997286,0 -23.247958,30.99731 h 15.498637 v 54.24525 H 114.1188 v -54.24525 h 15.49862 z M 137.36675,476.6496 H 59.873557 c -4.237919,0 -7.749329,3.51141 -7.749329,7.74934 v 92.99186 c 0,4.23791 3.51141,7.74933 7.749329,7.74933 H 90.87083 V 577.3908 H 59.873557 V 561.89216 H 90.87083 v -7.74932 H 67.622875 v -69.7439 h 69.864955 l -0.12108,69.7439 h -15.49864 v 7.74932 h 15.49864 v 15.49864 h -15.49864 v 7.74933 h 15.49864 c 4.23791,0 7.74932,-3.51142 7.74932,-7.74933 v -92.99186 c 0,-4.23793 -3.51141,-7.74934 -7.74932,-7.74934 z"
       inkscape:connector-curvature="0" />
    <g
       inkscape:label="Layer 1"
       transform="matrix(0.15495159,0,0,0.15495162,-31.580405,689.69709)"
       id="layer1-4">
      <g
         transform="matrix(4.6848915,0,0,4.6848915,-1145.8937,-2197.6612)"
         id="g5653">
        <path
           d="m 471.9,510.8 -3.2,-8.5 c -1.4,-3.5 -4.6,-5.9 -8.6,-5.9 h -1.4 v -73.2 h -69.5 v 40.5 h 9.1 l 10.4,-13 c 2.1,-2.4 5.3,-4 8.8,-4 h 22.2 c 3.5,0 6.6,1.9 8.2,5 l 6.6,12.5 c 0.3,0.5 0.5,1.1 0.5,1.9 0,2.2 -1.9,4.2 -4.2,4.2 -1.8,0 -3,-0.8 -3.8,-2.2 l -5.9,-11.4 h -9.6 l 7.4,18.4 2.2,23.5 h 19 c 3,0 5.4,1.9 6.6,4.5 l 2.1,5.4 H 436 c -2.4,0 -4.5,-1.8 -4.6,-4.2 l -2.2,-20.6 -17.6,36.5 c -1,2.1 -3.2,3.5 -5.8,3.5 h -8.5 l 21.6,-44.7 -6.7,-16.8 -6.4,7.8 c -1.6,2.1 -4.3,3.5 -7.2,3.5 h -9.4 v 52.8 l 15,14.9 H 359.9 V 413.3 H 488 v 128.1 h -14.4 l -14.9,-14.9 v -15.7 h 13.2"
           id="path3495"
           inkscape:connector-curvature="0"
           style="fill:#269463" />
        <path
           d="m 412,428 h 0.5 0.5 l 0.5,0.1 0.4,0.1 0.4,0.1 0.4,0.1 0.4,0.2 0.4,0.2 0.4,0.2 0.4,0.2 0.4,0.2 0.4,0.2 0.3,0.3 0.3,0.3 0.3,0.3 0.3,0.3 0.3,0.3 0.3,0.3 0.3,0.3 0.3,0.4 0.2,0.4 0.2,0.4 0.2,0.4 0.2,0.4 0.2,0.4 0.1,0.4 0.1,0.4 0.1,0.4 0.1,0.4 0.1,0.5 v 0.5 0.5 c 0,5 -4.2,9 -9.1,9 -5,0 -9,-4 -9,-9 0,-5 4.2,-9.2 9.1,-9.2 z"
           id="path3497"
           inkscape:connector-curvature="0"
           style="fill:#269463" />
        <path
           d="m 416,529.8 11.5,11.5 h -13.9 l -15,-14.9 h 9 c 3.1,0 6.2,1.3 8.4,3.4 z"
           id="path3499"
           inkscape:connector-curvature="0"
           style="fill:#269463" />
      </g>
    </g>
  </g>
</svg>
