<?xml version="1.0" encoding="UTF-8" standalone="no"?>
<!-- Created with Inkscape (http://www.inkscape.org/) -->

<svg
   width="990"
   height="765"
   viewBox="0 0 990 765"
   id="svg2"
   version="1.1"
   xmlns="http://www.w3.org/2000/svg"
   xmlns:svg="http://www.w3.org/2000/svg"
   xmlns:rdf="http://www.w3.org/1999/02/22-rdf-syntax-ns#"
   xmlns:cc="http://creativecommons.org/ns#"
   xmlns:dc="http://purl.org/dc/elements/1.1/">
  <defs
     id="defs4" />
  <metadata
     id="metadata7">
    <rdf:RDF>
      <cc:Work
         rdf:about="">
        <dc:format>image/svg+xml</dc:format>
        <dc:type
           rdf:resource="http://purl.org/dc/dcmitype/StillImage" />
      </cc:Work>
    </rdf:RDF>
  </metadata>
  <g
     id="layer1"
     transform="translate(0,-287.3622)"
     style="display:inline">
    <rect
       style="fill:#e9362f;fill-opacity:1;stroke:none"
       id="rect3413"
       width="990.6283"
       height="279.25278"
       x="-0.17841776"
       y="286.9686" />
  </g>
  <g
     id="layer2"
     style="display:inline">
    <g
       id="g3445"
       style="fill:#ffffff;stroke:none"
       transform="translate(46,6)">
      <path
         id="path3415"
         d="m 923.27943,57.388142 c 0,0 -22.07793,-7.9661 -36.36549,-54.5482379 C 865.95687,62.067701 923.7845,96.784091 923.7845,96.784091 Z"
         style="fill:#ffffff;fill-rule:evenodd;stroke:none;stroke-width:1px;stroke-linecap:butt;stroke-linejoin:miter;stroke-opacity:1" />
      <path
         id="path3417"
         d="M 922.26928,114.46176 C 871.76165,78.601345 880.85302,16.476963 831.35555,20.012497 c 27.27411,19.697975 15.65736,104.550793 90.91373,94.449263 z"
         style="fill:#ffffff;fill-rule:evenodd;stroke:none;stroke-width:1px;stroke-linecap:butt;stroke-linejoin:miter;stroke-opacity:1" />
      <path
         id="path3419"
         d="m 922.77435,135.67496 c 0,0 -43.32487,-3.29305 -83.84266,-56.568539 -3.02367,57.585489 52.27915,90.949719 84.34774,95.459419 z"
         style="fill:#ffffff;fill-rule:evenodd;stroke:none;stroke-width:1px;stroke-linecap:butt;stroke-linejoin:miter;stroke-opacity:1" />
      <path
         id="path3421"
         d="m 922.26927,193.25366 c -59.09392,-14.14214 -57.07361,-70.71068 -110.10662,-39.90103 39.39595,7.57615 47.98224,76.26652 110.10662,39.90103 z"
         style="fill:#ffffff;fill-rule:evenodd;stroke:none;stroke-width:1px;stroke-linecap:butt;stroke-linejoin:miter;stroke-opacity:1" />
      <path
         id="path3423"
         d="m 922.26927,211.94148 c 0,0 -39.39594,15.65737 -83.33758,-17.17259 3.53553,28.78935 22.72843,60.50584 83.33758,55.55839 z"
         style="fill:#ffffff;fill-rule:evenodd;stroke:none;stroke-width:1px;stroke-linecap:butt;stroke-linejoin:miter;stroke-opacity:1" />
    </g>
  </g>
  <g
     id="layer3">
    <text
       xml:space="preserve"
       style="font-style:normal;font-weight:normal;line-height:0%;font-family:sans-serif;letter-spacing:0px;word-spacing:0px;fill:#000000;fill-opacity:1;stroke:none;stroke-width:1px;stroke-linecap:butt;stroke-linejoin:miter;stroke-opacity:1"
       x="57.222466"
       y="168.74156"
       id="text3459"><tspan
         id="tspan3461"
         x="57.222466"
         y="168.74156"
         style="font-style:normal;font-variant:normal;font-weight:bold;font-stretch:normal;font-size:86.0621px;line-height:1.25;font-family:Menlo;-inkscape-font-specification:'Menlo Bold';fill:#ffffff">In case of fire</tspan></text>
    <text
       xml:space="preserve"
       style="font-style:normal;font-weight:normal;line-height:0%;font-family:sans-serif;letter-spacing:0px;word-spacing:0px;fill:#000000;fill-opacity:1;stroke:none;stroke-width:1px;stroke-linecap:butt;stroke-linejoin:miter;stroke-opacity:1"
       x="192.16125"
       y="404.19373"
       id="text3741"><tspan
         id="tspan3743"
         x="192.16125"
         y="404.19373"
         style="font-style:normal;font-variant:normal;font-weight:bold;font-stretch:normal;font-size:72.7838px;line-height:200%;font-family:Menlo;-inkscape-font-specification:'Menlo Bold'">1. Start Strava</tspan><tspan
         x="192.16125"
         y="549.76135"
         id="tspan3745"
         style="font-style:normal;font-variant:normal;font-weight:bold;font-stretch:normal;font-size:72.7838px;line-height:200%;font-family:Menlo;-inkscape-font-specification:'Menlo Bold'">2. Wait for GPS</tspan><tspan
         x="192.16125"
         y="695.32892"
         id="tspan3747"
         style="font-style:normal;font-variant:normal;font-weight:bold;font-stretch:normal;font-size:72.7838px;line-height:200%;font-family:Menlo;-inkscape-font-specification:'Menlo Bold'">3. Begin run</tspan></text>
    <text
       xml:space="preserve"
       style="font-style:normal;font-weight:normal;line-height:0%;font-family:sans-serif;letter-spacing:0px;word-spacing:0px;fill:#000000;fill-opacity:1;stroke:none;stroke-width:1px;stroke-linecap:butt;stroke-linejoin:miter;stroke-opacity:1"
       x="685.71429"
       y="545"
       id="text3749"><tspan
         id="tspan3751"
         x="685.71429"
         y="545"
         style="font-size:40px;line-height:1.25"> </tspan></text>
    <path
       d="M 47.461724,316.02328 H 152.70273 V 421.26429 H 47.461724 Z"
       fill="#fc4c02"
       id="path1"
       style="stroke-width:6.57755" />
    <g
       fill="#ffffff"
       fill-rule="evenodd"
       id="g3"
       transform="matrix(6.5775631,0,0,6.5775631,47.461724,316.02328)">
      <path
         d="m 6.9,8.8 2.5,4.5 2.4,-4.5 h -1.5 l -0.9,1.7 -1,-1.7 z"
         opacity="0.6"
         id="path2" />
      <path
         d="m 7.2,2.5 3.1,6.3 H 4 Z m 0,3.8 1.2,2.5 H 5.9 Z"
         id="path3" />
    </g>
    <g
       id="g12"
       transform="matrix(0.38906759,0,0,0.38906759,-1.0105099,416.51688)">
      <path
         d="m 256,198.618 c 18.385,0 33.342,-14.956 33.342,-33.341 0,-18.386 -14.957,-33.343 -33.342,-33.343 -18.385,0 -33.341,14.957 -33.341,33.343 0,18.385 14.956,33.341 33.341,33.341 z"
         id="path1-7" />
      <path
         d="m 251.45,278.97 c 1.465,1.021 3.01,1.513 4.681,1.513 5.779,0 13.063,-5.891 23.682,-16.229 8.614,-8.385 17.011,-17.679 18.499,-19.485 22.142,-26.836 33.419,-61.014 30.168,-91.426 v -10e-4 c -0.271,-2.53 -0.645,-5.074 -1.112,-7.566 -2.92,-15.498 -12.361,-29.746 -26.582,-40.117 -13.242,-9.656 -29.816,-15.193 -45.473,-15.193 -0.002,0 -0.002,0 -0.003,0 -21.751,0 -41.284,8.878 -54.999,24.999 -13.959,16.407 -19.908,38.492 -16.32,60.591 6.501,40.054 31.09,77.564 67.459,102.914 z M 256,118.435 c 25.828,0 46.842,21.013 46.842,46.843 0,25.828 -21.014,46.841 -46.842,46.841 -25.828,0 -46.841,-21.013 -46.841,-46.841 0,-25.831 21.013,-46.843 46.841,-46.843 z"
         id="path2-4" />
      <path
         d="m 135.927,297.196 c -3.229,2.84 -4.92,4.929 -5.103,5.157 -2.313,2.904 -1.833,7.116 1.058,9.446 1.243,1.002 2.735,1.488 4.222,1.488 1.967,0 3.921,-0.854 5.257,-2.494 0.011,-0.014 1.177,-1.433 3.483,-3.462 2.799,-2.463 3.072,-6.729 0.609,-9.527 -2.461,-2.796 -6.726,-3.074 -9.526,-0.608 z"
         id="path3-4" />
      <path
         d="m 275.134,312.563 c -3.335,-1.669 -7.389,-0.317 -9.057,3.018 -1.667,3.335 -0.315,7.39 3.019,9.057 3.96,1.981 7.661,3.681 11.314,5.198 0.846,0.352 1.723,0.518 2.586,0.518 2.646,0 5.157,-1.565 6.236,-4.162 1.43,-3.442 -0.201,-7.392 -3.645,-8.822 -3.357,-1.397 -6.778,-2.97 -10.453,-4.807 z"
         id="path4" />
      <path
         d="m 229.68,287.338 c -3.351,-1.639 -7.393,-0.252 -9.03,3.097 -1.639,3.349 -0.252,7.392 3.097,9.029 3.035,1.484 6.388,3.262 10.252,5.431 1.046,0.588 2.179,0.865 3.299,0.865 2.361,0 4.653,-1.24 5.892,-3.445 1.826,-3.252 0.67,-7.366 -2.58,-9.19 -4.09,-2.298 -7.666,-4.189 -10.93,-5.787 z"
         id="path5" />
      <path
         d="m 188.023,278.062 c -4.361,0.112 -8.682,0.516 -12.842,1.199 -3.679,0.604 -6.171,4.077 -5.565,7.755 0.543,3.309 3.405,5.657 6.652,5.657 0.363,0 0.731,-0.03 1.102,-0.091 3.554,-0.584 7.254,-0.929 11.001,-1.025 3.727,-0.097 6.67,-3.195 6.573,-6.922 -0.094,-3.727 -3.213,-6.611 -6.921,-6.573 z"
         id="path6" />
      <path
         d="m 321.788,338.726 c 4.297,-0.022 8.642,-0.362 12.913,-1.011 3.686,-0.561 6.22,-4.003 5.659,-7.688 -0.56,-3.687 -4.019,-6.215 -7.688,-5.66 -3.625,0.552 -7.31,0.84 -10.954,0.858 -3.729,0.019 -6.734,3.056 -6.715,6.784 0.018,3.717 3.037,6.716 6.748,6.716 0.013,10e-4 0.024,10e-4 0.037,10e-4 z"
         id="path7" />
      <path
         d="m 370.794,323.564 c 1.202,0 2.42,-0.321 3.521,-0.996 1.777,-1.091 3.581,-2.251 5.358,-3.452 3.089,-2.085 3.903,-6.28 1.816,-9.37 -2.084,-3.088 -6.28,-3.905 -9.37,-1.817 -1.615,1.089 -3.25,2.143 -4.859,3.13 -3.18,1.948 -4.176,6.104 -2.228,9.282 1.274,2.078 3.491,3.223 5.762,3.223 z"
         id="path8" />
      <path
         d="M 426.798,359.464 392.664,251.605 c -3.5,-11.059 -13.644,-18.488 -25.243,-18.488 h -45.127 c -3.729,0 -6.75,3.021 -6.75,6.75 0,3.728 3.021,6.75 6.75,6.75 h 40.599 l -43.405,39.937 c -2.743,2.525 -2.921,6.795 -0.397,9.539 1.332,1.445 3.147,2.179 4.97,2.179 1.633,0 3.271,-0.589 4.569,-1.782 l 48.814,-44.914 c 0.036,-0.033 0.061,-0.073 0.095,-0.106 0.981,1.226 1.759,2.641 2.256,4.21 l 34.133,107.858 c 1.263,3.989 0.567,8.212 -1.904,11.586 -2.471,3.373 -6.287,5.309 -10.469,5.309 H 378.899 L 353.48,352.245 c -2.496,-2.768 -6.762,-2.989 -9.533,-0.492 -2.769,2.496 -2.989,6.765 -0.492,9.533 l 17.267,19.146 H 164.438 l 35.631,-50.175 c 2.16,-3.039 1.445,-7.253 -1.595,-9.411 -3.036,-2.156 -7.252,-1.444 -9.41,1.595 l -41.182,57.991 h -37.436 c -4.182,0 -7.998,-1.936 -10.469,-5.309 -2.472,-3.374 -3.167,-7.597 -1.905,-11.585 l 34.136,-107.86 c 1.714,-5.42 6.685,-9.061 12.371,-9.061 h 45.129 c 3.729,0 6.75,-3.022 6.75,-6.75 0,-3.729 -3.021,-6.75 -6.75,-6.75 h -45.129 c -11.601,0 -21.745,7.43 -25.243,18.488 l -34.135,107.86 c -2.573,8.136 -1.157,16.75 3.886,23.635 5.041,6.883 12.827,10.831 21.359,10.831 h 291.107 c 8.532,0 16.318,-3.948 21.36,-10.831 5.043,-6.885 6.459,-15.499 3.885,-23.636 z"
         id="path9" />
      <path
         d="m 254.281,408.036 h -91.737 c -3.728,0 -6.75,3.021 -6.75,6.75 0,3.728 3.022,6.75 6.75,6.75 h 91.737 c 3.729,0 6.75,-3.022 6.75,-6.75 0,-3.728 -3.021,-6.75 -6.75,-6.75 z"
         id="path10" />
      <path
         d="M 297.481,408.036 H 282.63 c -3.729,0 -6.75,3.021 -6.75,6.75 0,3.728 3.021,6.75 6.75,6.75 h 14.851 c 3.728,0 6.75,-3.022 6.75,-6.75 0,-3.728 -3.022,-6.75 -6.75,-6.75 z"
         id="path11" />
      <path
         d="m 379.831,408.036 h -55.35 c -3.729,0 -6.75,3.021 -6.75,6.75 0,3.728 3.021,6.75 6.75,6.75 h 55.35 c 3.729,0 6.75,-3.022 6.75,-6.75 0,-3.728 -3.021,-6.75 -6.75,-6.75 z"
         id="path12" />
    </g>
  </g>
  <g
     id="layer4"
     style="display:inline">
    <g
       transform="matrix(0.15495162,0,0,0.15495162,-33.229981,662.6973)"
       id="layer1-4">
      <g
         transform="matrix(4.6848915,0,0,4.6848915,-1145.8937,-2197.6612)"
         id="g5653">
        <path
           d="m 471.9,510.8 -3.2,-8.5 c -1.4,-3.5 -4.6,-5.9 -8.6,-5.9 h -1.4 v -73.2 h -69.5 v 40.5 h 9.1 l 10.4,-13 c 2.1,-2.4 5.3,-4 8.8,-4 h 22.2 c 3.5,0 6.6,1.9 8.2,5 l 6.6,12.5 c 0.3,0.5 0.5,1.1 0.5,1.9 0,2.2 -1.9,4.2 -4.2,4.2 -1.8,0 -3,-0.8 -3.8,-2.2 l -5.9,-11.4 h -9.6 l 7.4,18.4 2.2,23.5 h 19 c 3,0 5.4,1.9 6.6,4.5 l 2.1,5.4 H 436 c -2.4,0 -4.5,-1.8 -4.6,-4.2 l -2.2,-20.6 -17.6,36.5 c -1,2.1 -3.2,3.5 -5.8,3.5 h -8.5 l 21.6,-44.7 -6.7,-16.8 -6.4,7.8 c -1.6,2.1 -4.3,3.5 -7.2,3.5 h -9.4 v 52.8 l 15,14.9 H 359.9 V 413.3 H 488 v 128.1 h -14.4 l -14.9,-14.9 v -15.7 h 13.2"
           id="path3495"
           style="fill:#269463" />
        <path
           d="m 412,428 h 0.5 0.5 l 0.5,0.1 0.4,0.1 0.4,0.1 0.4,0.1 0.4,0.2 0.4,0.2 0.4,0.2 0.4,0.2 0.4,0.2 0.4,0.2 0.3,0.3 0.3,0.3 0.3,0.3 0.3,0.3 0.3,0.3 0.3,0.3 0.3,0.3 0.3,0.4 0.2,0.4 0.2,0.4 0.2,0.4 0.2,0.4 0.2,0.4 0.1,0.4 0.1,0.4 0.1,0.4 0.1,0.4 0.1,0.5 v 0.5 0.5 c 0,5 -4.2,9 -9.1,9 -5,0 -9,-4 -9,-9 0,-5 4.2,-9.2 9.1,-9.2 z"
           id="path3497"
           style="fill:#269463" />
        <path
           d="m 416,529.8 11.5,11.5 h -13.9 l -15,-14.9 h 9 c 3.1,0 6.2,1.3 8.4,3.4 z"
           id="path3499"
           style="fill:#269463" />
      </g>
    </g>
  </g>
</svg>
